<?xml version="1.0" encoding="UTF-8" standalone="no"?>
<!DOCTYPE svg PUBLIC "-//W3C//DTD SVG 1.1//EN" "http://www.w3.org/Graphics/SVG/1.1/DTD/svg11.dtd">
<!-- Created with Vectornator (http://vectornator.io/) -->
<svg height="100%" stroke-miterlimit="10" style="fill-rule:nonzero;clip-rule:evenodd;stroke-linecap:round;stroke-linejoin:round;" version="1.1" viewBox="0 0 300 50" width="100%" xml:space="preserve" xmlns="http://www.w3.org/2000/svg" xmlns:vectornator="http://vectornator.io" xmlns:xlink="http://www.w3.org/1999/xlink">
<defs/>
<g id="Layer-1" vectornator:layerName="Layer 1">
<g opacity="1">
<g fill="#ffffff" opacity="1" stroke="none">
<path d="M75.4897 43.6247C76.0456 43.6247 76.3583 43.312 76.3583 42.7561L76.3583 33.3405C76.3583 33.1668 76.4625 33.0626 76.6015 33.0626L80.7012 33.0626C81.2571 33.0626 81.5698 32.7499 81.5698 32.194L81.5698 28.9281C81.5698 28.3722 81.2571 28.0595 80.7012 28.0595L76.6015 28.0595C76.4625 28.0595 76.3583 27.99 76.3583 27.8163L76.3583 18.9566C76.3583 18.4007 76.0456 18.088 75.4897 18.088L72.328 18.088C71.7721 18.088 71.4594 18.4007 71.4594 18.9566L71.4594 42.7561C71.4594 43.312 71.7721 43.6247 72.328 43.6247L75.4897 43.6247ZM80.7012 27.3646C81.2571 27.3646 81.5698 27.0519 81.5698 26.496L81.5698 18.9566C81.5698 18.4007 81.2571 18.088 80.7012 18.088L77.9217 18.088C77.3658 18.088 77.0531 18.4007 77.0531 18.9566L77.0531 26.496C77.0531 27.0519 77.3658 27.3646 77.9217 27.3646L80.7012 27.3646Z"/>
<path d="M89.7833 22.8827C90.3392 22.8827 90.6519 22.57 90.6519 22.0141L90.6519 20.1032C90.6519 19.5473 90.3392 19.2346 89.7833 19.2346L86.6217 19.2346C86.0658 19.2346 85.7531 19.5473 85.7531 20.1032L85.7531 22.0141C85.7531 22.57 86.0658 22.8827 86.6217 22.8827L89.7833 22.8827ZM89.7833 43.6247C90.3392 43.6247 90.6519 43.312 90.6519 42.7561L90.6519 24.4114C90.6519 23.8555 90.3392 23.5428 89.7833 23.5428L86.6217 23.5428C86.0658 23.5428 85.7531 23.8555 85.7531 24.4114L85.7531 42.7561C85.7531 43.312 86.0658 43.6247 86.6217 43.6247L89.7833 43.6247Z"/>
<path d="M104.459 43.6247C105.015 43.6247 105.328 43.312 105.328 42.7561L105.328 27.9205C105.328 25.0368 103.556 23.5428 101.332 23.5428L101.298 23.5428C100.742 23.5428 100.429 23.8555 100.429 24.4114L100.429 42.7561C100.429 43.3467 100.742 43.6247 101.298 43.6247L104.459 43.6247ZM98.8655 43.6247C99.4214 43.6247 99.7341 43.312 99.7341 42.7561L99.7341 24.4114C99.7341 23.8555 99.4214 23.5428 98.8655 23.5428L95.7038 23.5428C95.1479 23.5428 94.8352 23.8207 94.8352 24.4114L94.8352 42.7561C94.8352 43.3467 95.1479 43.6247 95.7038 43.6247L98.8655 43.6247Z"/>
<path d="M119.135 43.6247C119.691 43.6247 120.004 43.312 120.004 42.7561L120.004 27.6078C120.004 24.8283 118.232 23.5428 116.008 23.5428L115.973 23.5428C115.418 23.5428 115.105 23.8555 115.105 24.4114L115.105 42.7561C115.105 43.3467 115.418 43.6247 115.973 43.6247L119.135 43.6247ZM113.541 30.2483C114.097 30.2483 114.41 29.9704 114.41 29.4145L114.41 24.4114C114.41 23.8555 114.097 23.5428 113.541 23.5428L113.507 23.5428C111.283 23.5428 109.511 24.8283 109.511 27.6078L109.511 29.4145C109.511 29.9356 109.824 30.2483 110.38 30.2483L113.541 30.2483ZM113.541 43.6247C114.097 43.6247 114.41 43.3467 114.41 42.7561L114.41 31.8118C114.41 31.2559 114.097 30.9432 113.541 30.9432L113.507 30.9432C111.283 30.9432 109.511 32.2635 109.511 35.0082L109.511 39.5597C109.511 42.3392 111.283 43.6247 113.507 43.6247L113.541 43.6247Z"/>
<path d="M133.811 43.6247C134.367 43.6247 134.68 43.312 134.68 42.7561L134.68 27.9205C134.68 25.0368 132.908 23.5428 130.684 23.5428L130.649 23.5428C130.093 23.5428 129.781 23.8555 129.781 24.4114L129.781 42.7561C129.781 43.3467 130.093 43.6247 130.649 43.6247L133.811 43.6247ZM128.217 43.6247C128.773 43.6247 129.086 43.312 129.086 42.7561L129.086 24.4114C129.086 23.8555 128.773 23.5428 128.217 23.5428L125.056 23.5428C124.5 23.5428 124.187 23.8207 124.187 24.4114L124.187 42.7561C124.187 43.3467 124.5 43.6247 125.056 43.6247L128.217 43.6247Z"/>
<path d="M142.893 43.6247C143.449 43.6247 143.762 43.312 143.762 42.7561L143.762 24.4114C143.762 23.8555 143.449 23.5428 142.893 23.5428L142.858 23.5428C140.635 23.5428 138.863 25.0368 138.863 27.9205L138.863 39.247C138.863 42.1307 140.635 43.6247 142.858 43.6247L142.893 43.6247ZM148.487 33.0278C149.043 33.0278 149.355 32.7152 149.355 32.1592L149.355 27.9205C149.355 25.0368 147.583 23.5428 145.36 23.5428L145.325 23.5428C144.769 23.5428 144.457 23.8555 144.457 24.4114L144.457 32.1592C144.457 32.7152 144.769 33.0278 145.325 33.0278L148.487 33.0278ZM145.36 43.6247C147.583 43.6247 149.355 42.1307 149.355 39.247L149.355 34.5566C149.355 34.0007 149.043 33.688 148.487 33.688L145.325 33.688C144.769 33.688 144.457 34.0007 144.457 34.5566L144.457 42.7561C144.457 43.312 144.769 43.6247 145.325 43.6247L145.36 43.6247Z"/>
<path d="M157.569 43.6247C158.125 43.6247 158.438 43.312 158.438 42.7561L158.438 24.4114C158.438 23.8207 158.125 23.5428 157.569 23.5428L157.534 23.5428C155.311 23.5428 153.539 24.8283 153.539 27.6078L153.539 39.5597C153.539 42.3392 155.311 43.6247 157.534 43.6247L157.569 43.6247ZM160.036 35.8421C162.259 35.8421 164.031 34.5218 164.031 31.7771L164.031 27.6078C164.031 24.8283 162.259 23.5428 160.036 23.5428L160.001 23.5428C159.445 23.5428 159.132 23.8207 159.132 24.4114L159.132 34.9735C159.132 35.5294 159.445 35.8421 160.001 35.8421L160.036 35.8421ZM160.036 43.6247C162.259 43.6247 164.031 42.3392 164.031 39.5597L164.031 37.3708C164.031 36.8497 163.719 36.537 163.163 36.537L160.001 36.537C159.445 36.537 159.132 36.8149 159.132 37.3708L159.132 42.7561C159.132 43.312 159.445 43.6247 160.001 43.6247L160.036 43.6247Z"/>
<path d="M190.291 43.6247C190.812 43.6247 191.159 43.3467 191.159 42.7561L191.159 18.9566C191.159 18.366 190.812 18.088 190.291 18.088L187.094 18.088C186.573 18.088 186.226 18.4007 186.226 18.9566L186.226 42.7561C186.226 43.312 186.573 43.6247 187.094 43.6247L190.291 43.6247ZM179.069 43.6247C179.625 43.6247 179.937 43.312 179.937 42.7561L179.937 18.9566C179.937 18.4007 179.625 18.088 179.069 18.088L175.907 18.088C175.351 18.088 175.038 18.366 175.038 18.9566L175.038 42.7561C175.038 43.3467 175.351 43.6247 175.907 43.6247L179.069 43.6247ZM183.203 43.6247C183.828 43.6247 184.35 43.4162 184.523 42.5129L185.079 39.7334C185.461 37.8225 185.531 36.8497 185.531 34.2091L185.531 18.9566C185.531 18.4007 185.218 18.088 184.662 18.088L181.501 18.088C180.945 18.088 180.632 18.4007 180.632 18.9566L180.632 34.2091C180.632 36.8497 180.736 37.8225 181.084 39.7334L181.674 42.5129C181.848 43.4162 182.369 43.6247 182.995 43.6247L183.203 43.6247Z"/>
<path d="M204.967 43.6247C205.523 43.6247 205.835 43.312 205.835 42.7561L205.835 27.6078C205.835 24.8283 204.063 23.5428 201.84 23.5428L201.805 23.5428C201.249 23.5428 200.936 23.8555 200.936 24.4114L200.936 42.7561C200.936 43.3467 201.249 43.6247 201.805 43.6247L204.967 43.6247ZM199.373 30.2483C199.929 30.2483 200.242 29.9704 200.242 29.4145L200.242 24.4114C200.242 23.8555 199.929 23.5428 199.373 23.5428L199.338 23.5428C197.115 23.5428 195.343 24.8283 195.343 27.6078L195.343 29.4145C195.343 29.9356 195.655 30.2483 196.211 30.2483L199.373 30.2483ZM199.373 43.6247C199.929 43.6247 200.242 43.3467 200.242 42.7561L200.242 31.8118C200.242 31.2559 199.929 30.9432 199.373 30.9432L199.338 30.9432C197.115 30.9432 195.343 32.2635 195.343 35.0082L195.343 39.5597C195.343 42.3392 197.115 43.6247 199.338 43.6247L199.373 43.6247Z"/>
<path d="M216.516 49.0795C218.739 49.0795 220.511 47.794 220.511 45.0145L220.511 24.4114C220.511 23.8555 220.198 23.5428 219.643 23.5428L216.481 23.5428C215.925 23.5428 215.612 23.8207 215.612 24.4114L215.612 48.2109C215.612 48.7668 215.925 49.0795 216.481 49.0795L216.516 49.0795ZM214.049 41.5401C214.605 41.5401 214.917 41.2621 214.917 40.6715L214.917 24.4114C214.917 23.8207 214.605 23.5428 214.049 23.5428L214.014 23.5428C211.79 23.5428 210.019 24.8283 210.019 27.6078L210.019 37.475C210.019 40.2546 211.79 41.5401 214.014 41.5401L214.049 41.5401ZM214.049 49.0795C214.605 49.0795 214.917 48.7668 214.917 48.2109L214.917 43.1035C214.917 42.5129 214.605 42.2349 214.049 42.2349L210.887 42.2349C210.331 42.2349 210.019 42.5824 210.019 43.1035L210.019 45.0145C210.019 47.794 211.79 49.0795 214.014 49.0795L214.049 49.0795Z"/>
<path d="M241.142 43.6247C241.698 43.6247 242.011 43.312 242.011 42.7561L242.011 18.9566C242.011 18.4007 241.698 18.088 241.142 18.088L237.981 18.088C237.425 18.088 237.112 18.366 237.112 18.9566L237.112 33.6185C237.112 36.259 237.355 37.3013 238.05 39.1775L239.301 42.5129C239.648 43.4162 240.065 43.6247 240.691 43.6247L241.142 43.6247ZM235.548 43.6247C236.104 43.6247 236.417 43.3467 236.417 42.7561L236.417 28.0942C236.417 25.4537 236.209 24.4114 235.479 22.5352L234.228 19.1651C233.881 18.2965 233.464 18.088 232.873 18.088L232.387 18.088C231.831 18.088 231.518 18.4007 231.518 18.9566L231.518 42.7561C231.518 43.312 231.831 43.6247 232.387 43.6247L235.548 43.6247Z"/>
<path d="M252.691 43.6247C254.915 43.6247 256.687 42.1307 256.687 39.247L256.687 27.9205C256.687 25.0368 254.915 23.5428 252.691 23.5428L252.656 23.5428C252.101 23.5428 251.788 23.8555 251.788 24.4114L251.788 42.7561C251.788 43.312 252.101 43.6247 252.656 43.6247L252.691 43.6247ZM250.224 43.6247C250.78 43.6247 251.093 43.312 251.093 42.7561L251.093 24.4114C251.093 23.8555 250.78 23.5428 250.224 23.5428L250.19 23.5428C247.966 23.5428 246.194 25.0368 246.194 27.9205L246.194 39.247C246.194 42.1307 247.966 43.6247 250.19 43.6247L250.224 43.6247Z"/>
<path d="M273.273 43.6247C273.795 43.6247 274.316 43.451 274.802 42.6866L275.845 40.9147C276.678 39.4207 276.991 38.4131 276.991 36.1548L276.991 24.4114C276.991 23.8555 276.644 23.5428 276.122 23.5428L272.926 23.5428C272.405 23.5428 272.057 23.8555 272.057 24.4114L272.057 42.7561C272.057 43.312 272.405 43.6247 272.926 43.6247L273.273 43.6247ZM264.9 43.6247C265.456 43.6247 265.769 43.312 265.769 42.7561L265.769 24.4114C265.769 23.8555 265.456 23.5428 264.9 23.5428L261.739 23.5428C261.183 23.5428 260.87 23.8555 260.87 24.4114L260.87 36.1548C260.87 38.4131 261.183 39.4207 262.016 40.9147L263.059 42.6866C263.545 43.451 264.032 43.6247 264.588 43.6247L264.9 43.6247ZM270.494 43.6247C271.05 43.6247 271.363 43.3467 271.363 42.7561L271.363 24.4114C271.363 23.8207 271.05 23.5428 270.494 23.5428L267.332 23.5428C266.776 23.5428 266.464 23.8555 266.464 24.4114L266.464 42.7561C266.464 43.312 266.776 43.6247 267.332 43.6247L270.494 43.6247Z"/>
</g>
<path d="M57.3888 42.9026L57.3888 39.2921L55.2225 39.2921L55.2225 19.0732L56.6667 19.0732L56.6667 15.4627L58.833 15.4627L58.833 12.5743L38.6141 4.63114L18.3952 12.5743L18.3952 15.4627L20.5615 15.4627L20.5615 19.0732L22.0057 19.0732L22.0057 39.2921L19.8394 39.2921L19.8394 42.9026L17.6731 42.9026L17.6731 46.5131L59.5551 46.5131L59.5551 42.9026L57.3888 42.9026Z" fill="none" opacity="1" stroke="#ffffff" stroke-linecap="butt" stroke-linejoin="miter" stroke-width="1.44421"/>
<path d="M33.5594 39.2921L26.3384 39.2921L26.3384 19.0732L33.5594 19.0732M43.6688 19.0732L50.8899 19.0732L50.8899 39.2921L43.6688 39.2921" fill="none" opacity="1" stroke="#ffffff" stroke-linecap="round" stroke-linejoin="miter" stroke-width="1.44421"/>
<path d="M45.8351 42.1805C45.4363 42.1805 45.113 42.5038 45.113 42.9026C45.113 43.3014 45.4363 43.6247 45.8351 43.6247C46.2339 43.6247 46.5572 43.3014 46.5572 42.9026C46.5572 42.5038 46.2339 42.1805 45.8351 42.1805ZM42.9467 42.1805C42.5479 42.1805 42.2246 42.5038 42.2246 42.9026C42.2246 43.3014 42.5479 43.6247 42.9467 43.6247C43.3455 43.6247 43.6688 43.3014 43.6688 42.9026C43.6688 42.5038 43.3455 42.1805 42.9467 42.1805ZM40.0583 42.1805C39.6595 42.1805 39.3362 42.5038 39.3362 42.9026C39.3362 43.3014 39.6595 43.6247 40.0583 43.6247C40.4571 43.6247 40.7804 43.3014 40.7804 42.9026C40.7804 42.5038 40.4571 42.1805 40.0583 42.1805ZM37.1699 42.1805C36.7711 42.1805 36.4478 42.5038 36.4478 42.9026C36.4478 43.3014 36.7711 43.6247 37.1699 43.6247C37.5687 43.6247 37.892 43.3014 37.892 42.9026C37.892 42.5038 37.5687 42.1805 37.1699 42.1805ZM34.2815 42.1805C33.8827 42.1805 33.5594 42.5038 33.5594 42.9026C33.5594 43.3014 33.8827 43.6247 34.2815 43.6247C34.6803 43.6247 35.0036 43.3014 35.0036 42.9026C35.0036 42.5038 34.6803 42.1805 34.2815 42.1805ZM31.3931 42.1805C30.9943 42.1805 30.671 42.5038 30.671 42.9026C30.671 43.3014 30.9943 43.6247 31.3931 43.6247C31.7919 43.6247 32.1152 43.3014 32.1152 42.9026C32.1152 42.5038 31.7919 42.1805 31.3931 42.1805ZM28.5047 42.1805C28.1059 42.1805 27.7826 42.5038 27.7826 42.9026C27.7826 43.3014 28.1059 43.6247 28.5047 43.6247C28.9035 43.6247 29.2268 43.3014 29.2268 42.9026C29.2268 42.5038 28.9035 42.1805 28.5047 42.1805ZM25.6163 42.1805C25.2175 42.1805 24.8942 42.5038 24.8942 42.9026C24.8942 43.3014 25.2175 43.6247 25.6163 43.6247C26.0151 43.6247 26.3384 43.3014 26.3384 42.9026C26.3384 42.5038 26.0151 42.1805 25.6163 42.1805ZM48.7236 42.1805C48.3247 42.1805 48.0014 42.5038 48.0014 42.9026C48.0014 43.3014 48.3247 43.6247 48.7236 43.6247C49.1224 43.6247 49.4457 43.3014 49.4457 42.9026C49.4457 42.5038 49.1224 42.1805 48.7236 42.1805ZM54.5004 42.1805C54.1016 42.1805 53.7783 42.5038 53.7783 42.9026C53.7783 43.3014 54.1016 43.6247 54.5004 43.6247C54.8992 43.6247 55.2225 43.3014 55.2225 42.9026C55.2225 42.5038 54.8992 42.1805 54.5004 42.1805ZM51.612 42.1805C51.2132 42.1805 50.8899 42.5038 50.8899 42.9026C50.8899 43.3014 51.2132 43.6247 51.612 43.6247C52.0108 43.6247 52.3341 43.3014 52.3341 42.9026C52.3341 42.5038 52.0108 42.1805 51.612 42.1805ZM22.7278 42.1805C22.329 42.1805 22.0057 42.5038 22.0057 42.9026C22.0057 43.3014 22.329 43.6247 22.7278 43.6247C23.1267 43.6247 23.45 43.3014 23.45 42.9026C23.45 42.5038 23.1267 42.1805 22.7278 42.1805ZM45.8351 14.7406C45.4363 14.7406 45.113 15.0639 45.113 15.4627C45.113 15.8615 45.4363 16.1848 45.8351 16.1848C46.2339 16.1848 46.5572 15.8615 46.5572 15.4627C46.5572 15.0639 46.2339 14.7406 45.8351 14.7406ZM42.9467 14.7406C42.5479 14.7406 42.2246 15.0639 42.2246 15.4627C42.2246 15.8615 42.5479 16.1848 42.9467 16.1848C43.3455 16.1848 43.6688 15.8615 43.6688 15.4627C43.6688 15.0639 43.3455 14.7406 42.9467 14.7406ZM40.0583 14.7406C39.6595 14.7406 39.3362 15.0639 39.3362 15.4627C39.3362 15.8615 39.6595 16.1848 40.0583 16.1848C40.4571 16.1848 40.7804 15.8615 40.7804 15.4627C40.7804 15.0639 40.4571 14.7406 40.0583 14.7406ZM37.1699 14.7406C36.7711 14.7406 36.4478 15.0639 36.4478 15.4627C36.4478 15.8615 36.7711 16.1848 37.1699 16.1848C37.5687 16.1848 37.892 15.8615 37.892 15.4627C37.892 15.0639 37.5687 14.7406 37.1699 14.7406ZM34.2815 14.7406C33.8827 14.7406 33.5594 15.0639 33.5594 15.4627C33.5594 15.8615 33.8827 16.1848 34.2815 16.1848C34.6803 16.1848 35.0036 15.8615 35.0036 15.4627C35.0036 15.0639 34.6803 14.7406 34.2815 14.7406ZM31.3931 14.7406C30.9943 14.7406 30.671 15.0639 30.671 15.4627C30.671 15.8615 30.9943 16.1848 31.3931 16.1848C31.7919 16.1848 32.1152 15.8615 32.1152 15.4627C32.1152 15.0639 31.7919 14.7406 31.3931 14.7406ZM28.5047 14.7406C28.1059 14.7406 27.7826 15.0639 27.7826 15.4627C27.7826 15.8615 28.1059 16.1848 28.5047 16.1848C28.9035 16.1848 29.2268 15.8615 29.2268 15.4627C29.2268 15.0639 28.9035 14.7406 28.5047 14.7406ZM25.6163 14.7406C25.2175 14.7406 24.8942 15.0639 24.8942 15.4627C24.8942 15.8615 25.2175 16.1848 25.6163 16.1848C26.0151 16.1848 26.3384 15.8615 26.3384 15.4627C26.3384 15.0639 26.0151 14.7406 25.6163 14.7406ZM48.7236 14.7406C48.3247 14.7406 48.0014 15.0639 48.0014 15.4627C48.0014 15.8615 48.3247 16.1848 48.7236 16.1848C49.1224 16.1848 49.4457 15.8615 49.4457 15.4627C49.4457 15.0639 49.1224 14.7406 48.7236 14.7406ZM54.5004 14.7406C54.1016 14.7406 53.7783 15.0639 53.7783 15.4627C53.7783 15.8615 54.1016 16.1848 54.5004 16.1848C54.8992 16.1848 55.2225 15.8615 55.2225 15.4627C55.2225 15.0639 54.8992 14.7406 54.5004 14.7406ZM51.612 14.7406C51.2132 14.7406 50.8899 15.0639 50.8899 15.4627C50.8899 15.8615 51.2132 16.1848 51.612 16.1848C52.0108 16.1848 52.3341 15.8615 52.3341 15.4627C52.3341 15.0639 52.0108 14.7406 51.612 14.7406ZM22.7278 14.7406C22.329 14.7406 22.0057 15.0639 22.0057 15.4627C22.0057 15.8615 22.329 16.1848 22.7278 16.1848C23.1267 16.1848 23.45 15.8615 23.45 15.4627C23.45 15.0639 23.1267 14.7406 22.7278 14.7406ZM24.1721 18.3511C23.7732 18.3511 23.45 18.6744 23.45 19.0732C23.45 19.472 23.7732 19.7953 24.1721 19.7953C24.5709 19.7953 24.8942 19.472 24.8942 19.0732C24.8942 18.6744 24.5709 18.3511 24.1721 18.3511ZM53.0562 18.3511C52.6574 18.3511 52.3341 18.6744 52.3341 19.0732C52.3341 19.472 52.6574 19.7953 53.0562 19.7953C53.455 19.7953 53.7783 19.472 53.7783 19.0732C53.7783 18.6744 53.455 18.3511 53.0562 18.3511ZM24.1721 38.57C23.7732 38.57 23.45 38.8933 23.45 39.2921C23.45 39.6909 23.7732 40.0142 24.1721 40.0142C24.5709 40.0142 24.8942 39.6909 24.8942 39.2921C24.8942 38.8933 24.5709 38.57 24.1721 38.57ZM53.0562 38.57C52.6574 38.57 52.3341 38.8933 52.3341 39.2921C52.3341 39.6909 52.6574 40.0142 53.0562 40.0142C53.455 40.0142 53.7783 39.6909 53.7783 39.2921C53.7783 38.8933 53.455 38.57 53.0562 38.57ZM37.9512 37.8479L37.9512 36.5416C35.078 36.351 33.2698 34.7739 33.2597 32.4429L35.3892 32.4429C35.4896 33.638 36.4543 34.472 37.9512 34.6432L37.9512 30.0622L37.0573 29.8311C34.8173 29.2585 33.5912 27.9125 33.5912 25.9527C33.5912 23.6326 35.239 22.0952 37.9512 21.8439L37.9512 20.4575L39.3275 20.4575L39.3275 21.8439C41.9293 22.075 43.6371 23.6622 43.6977 25.9028L41.5978 25.9028C41.5574 24.7973 40.6533 23.9337 39.3275 23.7726L39.3275 28.1031L40.262 28.314C42.7835 28.927 43.9692 30.2022 43.9692 32.2819C43.9692 34.7436 42.2708 36.2802 39.3275 36.5315L39.3275 37.8472L37.9512 37.8472L37.9512 37.8479ZM37.9512 27.8121L37.9512 23.7633C36.6652 23.8333 35.7409 24.6774 35.7409 25.7729C35.7409 26.8076 36.5041 27.5204 37.9512 27.8121ZM39.3275 30.3236L39.3275 34.6634C40.9147 34.5724 41.8289 33.7897 41.8289 32.5137C41.8289 31.3576 41.0353 30.6651 39.3275 30.3236Z" fill="#ffffff" fill-rule="nonzero" opacity="1" stroke="none"/>
</g>
</g>
</svg>
